<svg xmlns="http://www.w3.org/2000/svg" width="21" height="24.44" viewBox="0 0 21 24.44">
  <defs>
    <style>
      .cls-1 {
        fill: #fff;
        fill-rule: evenodd;
      }
    </style>
  </defs>
  <path id="icon" class="cls-1" d="M832.1,3416.23c2.859,0,4.687,2.74,4.687,2.74a5.664,5.664,0,0,0-2.789,4.76,5.279,5.279,0,0,0,3.5,4.99s-2.766,6.51-5.871,6.51c-1.746,0-1.863-1-4.184-1-2.015,0-2.7,1-4.23,1-2.93,0-6.715-6.34-6.715-11.5,0-5.35,3.832-7.5,6.234-7.5,2.11,0,2.989,1.23,4.688,1.23C828.852,3417.46,829.977,3416.23,832.1,3416.23Zm-0.493-5.46c0.422,2.63-1.98,5.87-4.851,5.77C826.332,3413.2,829.426,3410.95,831.605,3410.77Z" transform="translate(-816.5 -3410.78)"/>
</svg>
