<svg xmlns="http://www.w3.org/2000/svg" width="12" height="9" viewBox="0 0 12 9">
  <defs>
    <style>
      .cls-1 {
        fill: #999;
        fill-rule: evenodd;
      }
    </style>
  </defs>
  <path id="repost_icon" data-name="repost icon" class="cls-1" d="M1076.85,2894a0.107,0.107,0,0,0-.05.11v1H1071a0.982,0.982,0,0,0-.71.29,1.007,1.007,0,0,0-.29.71v4.78a0.99,0.99,0,0,0,1,1h1v-1.2h-0.8v-4.39h5.6v1c0,0.12.08,0.16,0.16,0.08l2.08-1.55a0.16,0.16,0,0,0,0-.25l-2.08-1.54A0.094,0.094,0,0,0,1076.85,2894Zm3.15,1.11v1.19h0.8v4.39h-5.6v-1c0-.12-0.08-0.15-0.16-0.07l-2.08,1.54a0.16,0.16,0,0,0,0,.25l2.08,1.55c0.08,0.08.16,0.04,0.16-.08v-0.99h5.8a0.99,0.99,0,0,0,1-1v-4.79a1.024,1.024,0,0,0-.29-0.71,1.014,1.014,0,0,0-.71-0.28h-1Z" transform="translate(-1070 -2894)"/>
</svg>
