<svg xmlns="http://www.w3.org/2000/svg" width="11" height="8" viewBox="0 0 11 8">
  <defs>
    <style>
      .cls-1 {
        fill: #999;
        fill-rule: evenodd;
      }
    </style>
  </defs>
  <path id="like_icon" data-name="like icon" class="cls-1" d="M1034.8,2895.53a2.805,2.805,0,0,0-1.58-1.3,3.476,3.476,0,0,0-2.06-.13,1.823,1.823,0,0,1-3.32,0,3.476,3.476,0,0,0-2.06.13,2.768,2.768,0,0,0-1.58,1.3,1.919,1.919,0,0,0,.07,1.84c0.74,1.37,5.21,4.57,5.23,4.63,0.02-.06,4.49-3.26,5.23-4.63A1.919,1.919,0,0,0,1034.8,2895.53Z" transform="translate(-1024 -2894)"/>
</svg>
