<svg xmlns="http://www.w3.org/2000/svg" width="11" height="8" viewBox="0 0 11 8">
  <defs>
    <style>
      .cls-1 {
        fill: #333;
        fill-rule: evenodd;
      }
    </style>
  </defs>
  <path id="Like_icon" data-name="Like icon" class="cls-1" d="M529.8,2895.53a2.826,2.826,0,0,0-1.586-1.3,3.463,3.463,0,0,0-2.057-.13,1.822,1.822,0,0,1-3.319,0,3.463,3.463,0,0,0-2.057.13,2.8,2.8,0,0,0-1.586,1.3,1.949,1.949,0,0,0,.07,1.84c0.74,1.37,5.209,4.57,5.233,4.63,0.023-.06,4.493-3.26,5.232-4.63A1.943,1.943,0,0,0,529.8,2895.53Z" transform="translate(-519 -2894)"/>
</svg>
