<svg xmlns="http://www.w3.org/2000/svg" width="12" height="9" viewBox="0 0 12 9">
  <defs>
    <style>
      .cls-1 {
        fill: #333;
        fill-rule: evenodd;
      }
    </style>
  </defs>
  <path id="Repost_Icon" data-name="Repost Icon" class="cls-1" d="M586.85,2894a0.107,0.107,0,0,0-.05.11v1H581a0.983,0.983,0,0,0-.712.29,1,1,0,0,0-.288.71v4.78a1.013,1.013,0,0,0,.288.71,1.025,1.025,0,0,0,.712.29h1v-1.2h-0.8v-4.39h5.6v1c0,0.12.082,0.16,0.162,0.08l2.076-1.55a0.16,0.16,0,0,0,0-.25l-2.076-1.54A0.1,0.1,0,0,0,586.85,2894Zm3.15,1.11v1.19h0.8v4.39h-5.6v-1c0-.12-0.082-0.15-0.162-0.07l-2.076,1.54a0.16,0.16,0,0,0,0,.25l2.076,1.55c0.08,0.08.162,0.04,0.162-.08v-0.99H591a1.025,1.025,0,0,0,.712-0.29,1.013,1.013,0,0,0,.288-0.71v-4.79a0.971,0.971,0,0,0-1-.99h-1Z" transform="translate(-580 -2894)"/>
</svg>
